<svg width="81" height="88" viewBox="0 0 81 88" fill="none" xmlns="http://www.w3.org/2000/svg">
<g opacity="0.84">
<path d="M19.3283 30.2502H5.89192C2.63846 30.2502 0 32.8768 0 36.1168V41.2502H20.25C25.3335 41.2502 29.4545 37.1461 29.4545 32.0835C29.4545 27.0209 33.5756 22.9168 38.6591 22.9168H73.6364C77.7032 22.9168 81 19.6336 81 15.5835V10.0835H39.5795C33.9877 10.0835 29.4545 14.598 29.4545 20.1668C29.4545 25.7357 24.9202 30.2502 19.3283 30.2502Z" fill="#C01048"/>
<path opacity="0.75" d="M19.3283 48.5832H5.89192C2.63846 48.5832 0 51.2098 0 54.4498V59.5832H20.25C25.3335 59.5832 29.4545 55.4791 29.4545 50.4165C29.4545 45.3539 33.5756 41.2498 38.6591 41.2498H62.5909C66.6577 41.2498 69.9545 37.9666 69.9545 33.9165V28.4165H39.5795C33.9877 28.4165 29.4545 32.931 29.4545 38.4998C29.4545 44.0687 24.9202 48.5832 19.3283 48.5832Z" fill="#C01048"/>
<path opacity="0.5" d="M19.3283 66.9167H5.89192C2.63846 66.9167 0 69.5433 0 72.7833V77.9167H20.25C25.3335 77.9167 29.4545 73.8126 29.4545 68.75C29.4545 63.6874 33.5756 59.5833 38.6591 59.5833H53.0182C56.2716 59.5833 58.9091 56.9567 58.9091 53.7167V46.75H39.5795C33.9877 46.75 29.4545 51.2645 29.4545 56.8333C29.4545 62.4022 24.9202 66.9167 19.3283 66.9167Z" fill="#C01048"/>
</g>
</svg>
