<svg width="38" height="38" viewBox="0 0 38 38" fill="none" xmlns="http://www.w3.org/2000/svg">
<g filter="url(#filter0_ddiii_387_3312)">
<g clip-path="url(#clip0_387_3312)">
<rect x="3" width="32" height="32" rx="6" fill="#A11043"/>
<rect width="32" height="32" transform="translate(3)" fill="url(#paint0_linear_387_3312)"/>
<g filter="url(#filter1_d_387_3312)">
<path d="M13.2497 12.25H9.60027C8.71662 12.25 8 12.9663 8 13.85V15.25H13.5C14.8807 15.25 16 14.1307 16 12.75C16 11.3693 17.1193 10.25 18.5 10.25H28C29.1046 10.25 30 9.35457 30 8.25V6.75H18.75C17.2312 6.75 16 7.98122 16 9.5C16 11.0188 14.7685 12.25 13.2497 12.25Z" fill="url(#paint1_linear_387_3312)"/>
<path opacity="0.75" d="M13.2497 17.25H9.60027C8.71662 17.25 8 17.9663 8 18.85V20.25H13.5C14.8807 20.25 16 19.1307 16 17.75C16 16.3693 17.1193 15.25 18.5 15.25H25C26.1046 15.25 27 14.3546 27 13.25V11.75H18.75C17.2312 11.75 16 12.9812 16 14.5C16 16.0188 14.7685 17.25 13.2497 17.25Z" fill="url(#paint2_linear_387_3312)"/>
<path opacity="0.5" d="M13.2497 22.25H9.60027C8.71662 22.25 8 22.9663 8 23.85V25.25H13.5C14.8807 25.25 16 24.1307 16 22.75C16 21.3693 17.1193 20.25 18.5 20.25H22.4C23.2837 20.25 24 19.5337 24 18.65V16.75H18.75C17.2312 16.75 16 17.9812 16 19.5C16 21.0188 14.7685 22.25 13.2497 22.25Z" fill="url(#paint3_linear_387_3312)"/>
</g>
</g>
<rect x="4" y="1" width="30" height="30" rx="5" stroke="url(#paint4_linear_387_3312)" stroke-width="2"/>
</g>
<defs>
<filter id="filter0_ddiii_387_3312" x="0" y="-3" width="38" height="41" filterUnits="userSpaceOnUse" color-interpolation-filters="sRGB">
<feFlood flood-opacity="0" result="BackgroundImageFix"/>
<feColorMatrix in="SourceAlpha" type="matrix" values="0 0 0 0 0 0 0 0 0 0 0 0 0 0 0 0 0 0 127 0" result="hardAlpha"/>
<feOffset dy="1"/>
<feGaussianBlur stdDeviation="0.5"/>
<feComposite in2="hardAlpha" operator="out"/>
<feColorMatrix type="matrix" values="0 0 0 0 0.162923 0 0 0 0 0.162923 0 0 0 0 0.162923 0 0 0 0.08 0"/>
<feBlend mode="normal" in2="BackgroundImageFix" result="effect1_dropShadow_387_3312"/>
<feColorMatrix in="SourceAlpha" type="matrix" values="0 0 0 0 0 0 0 0 0 0 0 0 0 0 0 0 0 0 127 0" result="hardAlpha"/>
<feMorphology radius="1" operator="erode" in="SourceAlpha" result="effect2_dropShadow_387_3312"/>
<feOffset dy="3"/>
<feGaussianBlur stdDeviation="2"/>
<feComposite in2="hardAlpha" operator="out"/>
<feColorMatrix type="matrix" values="0 0 0 0 0.164706 0 0 0 0 0.164706 0 0 0 0 0.164706 0 0 0 0.14 0"/>
<feBlend mode="normal" in2="effect1_dropShadow_387_3312" result="effect2_dropShadow_387_3312"/>
<feBlend mode="normal" in="SourceGraphic" in2="effect2_dropShadow_387_3312" result="shape"/>
<feColorMatrix in="SourceAlpha" type="matrix" values="0 0 0 0 0 0 0 0 0 0 0 0 0 0 0 0 0 0 127 0" result="hardAlpha"/>
<feOffset dy="-3"/>
<feGaussianBlur stdDeviation="1.5"/>
<feComposite in2="hardAlpha" operator="arithmetic" k2="-1" k3="1"/>
<feColorMatrix type="matrix" values="0 0 0 0 0 0 0 0 0 0 0 0 0 0 0 0 0 0 0.1 0"/>
<feBlend mode="normal" in2="shape" result="effect3_innerShadow_387_3312"/>
<feColorMatrix in="SourceAlpha" type="matrix" values="0 0 0 0 0 0 0 0 0 0 0 0 0 0 0 0 0 0 127 0" result="hardAlpha"/>
<feOffset dy="3"/>
<feGaussianBlur stdDeviation="1.5"/>
<feComposite in2="hardAlpha" operator="arithmetic" k2="-1" k3="1"/>
<feColorMatrix type="matrix" values="0 0 0 0 1 0 0 0 0 1 0 0 0 0 1 0 0 0 0.1 0"/>
<feBlend mode="normal" in2="effect3_innerShadow_387_3312" result="effect4_innerShadow_387_3312"/>
<feColorMatrix in="SourceAlpha" type="matrix" values="0 0 0 0 0 0 0 0 0 0 0 0 0 0 0 0 0 0 127 0" result="hardAlpha"/>
<feMorphology radius="1" operator="erode" in="SourceAlpha" result="effect5_innerShadow_387_3312"/>
<feOffset/>
<feComposite in2="hardAlpha" operator="arithmetic" k2="-1" k3="1"/>
<feColorMatrix type="matrix" values="0 0 0 0 0 0 0 0 0 0 0 0 0 0 0 0 0 0 0.2 0"/>
<feBlend mode="normal" in2="effect4_innerShadow_387_3312" result="effect5_innerShadow_387_3312"/>
</filter>
<filter id="filter1_d_387_3312" x="5" y="3.25" width="28" height="30" filterUnits="userSpaceOnUse" color-interpolation-filters="sRGB">
<feFlood flood-opacity="0" result="BackgroundImageFix"/>
<feColorMatrix in="SourceAlpha" type="matrix" values="0 0 0 0 0 0 0 0 0 0 0 0 0 0 0 0 0 0 127 0" result="hardAlpha"/>
<feMorphology radius="1.5" operator="erode" in="SourceAlpha" result="effect1_dropShadow_387_3312"/>
<feOffset dy="2.25"/>
<feGaussianBlur stdDeviation="2.25"/>
<feComposite in2="hardAlpha" operator="out"/>
<feColorMatrix type="matrix" values="0 0 0 0 0.141176 0 0 0 0 0.141176 0 0 0 0 0.141176 0 0 0 0.1 0"/>
<feBlend mode="normal" in2="BackgroundImageFix" result="effect1_dropShadow_387_3312"/>
<feBlend mode="normal" in="SourceGraphic" in2="effect1_dropShadow_387_3312" result="shape"/>
</filter>
<linearGradient id="paint0_linear_387_3312" x1="16" y1="3.97364e-07" x2="17.3333" y2="32" gradientUnits="userSpaceOnUse">
<stop stop-color="white" stop-opacity="0"/>
<stop offset="1" stop-color="white" stop-opacity="0.12"/>
</linearGradient>
<linearGradient id="paint1_linear_387_3312" x1="19" y1="6.75" x2="19" y2="15.25" gradientUnits="userSpaceOnUse">
<stop stop-color="white" stop-opacity="0.8"/>
<stop offset="1" stop-color="white" stop-opacity="0.5"/>
</linearGradient>
<linearGradient id="paint2_linear_387_3312" x1="17.5" y1="11.75" x2="17.5" y2="20.25" gradientUnits="userSpaceOnUse">
<stop stop-color="white" stop-opacity="0.8"/>
<stop offset="1" stop-color="white" stop-opacity="0.5"/>
</linearGradient>
<linearGradient id="paint3_linear_387_3312" x1="16" y1="16.75" x2="16" y2="25.25" gradientUnits="userSpaceOnUse">
<stop stop-color="white" stop-opacity="0.8"/>
<stop offset="1" stop-color="white" stop-opacity="0.5"/>
</linearGradient>
<linearGradient id="paint4_linear_387_3312" x1="19" y1="0" x2="19" y2="32" gradientUnits="userSpaceOnUse">
<stop stop-color="white" stop-opacity="0.12"/>
<stop offset="1" stop-color="white" stop-opacity="0"/>
</linearGradient>
<clipPath id="clip0_387_3312">
<rect x="3" width="32" height="32" rx="6" fill="white"/>
</clipPath>
</defs>
</svg>
